<svg width="12" height="12" viewBox="0 0 12 12" fill="none" xmlns="http://www.w3.org/2000/svg">
<path fill-rule="evenodd" clip-rule="evenodd" d="M2.35299 0.195526H9.50922C10.7523 0.195526 11.7633 1.20635 11.7636 2.44941V4.83059V9.60611C11.7636 10.8492 10.7525 11.8602 9.50946 11.8602H2.35299C1.10993 11.8602 0.0986328 10.8492 0.0986328 9.60611V4.83082V2.44964C0.0986328 1.20659 1.10993 0.195526 2.35299 0.195526ZM10.4137 1.53883L10.1558 1.53977L8.43628 1.54541L8.4431 3.52236L10.4137 3.516V1.79553V1.53883ZM4.26616 4.83059C4.6398 4.31365 5.24592 3.97459 5.9311 3.97459C6.61627 3.97459 7.22239 4.31365 7.59557 4.83059C7.83863 5.168 7.98427 5.5807 7.98427 6.02776C7.98427 7.15976 7.06239 8.0807 5.93086 8.0807C4.79863 8.0807 3.87769 7.15976 3.87769 6.02776C3.87792 5.5807 4.0231 5.168 4.26616 4.83059ZM9.50922 10.7235C10.1255 10.7235 10.6269 10.2226 10.6269 9.60588V4.83059H8.88523C9.03558 5.20047 9.12052 5.60447 9.12052 6.02777C9.12052 7.78612 7.68993 9.21765 5.93111 9.21765C4.17205 9.21765 2.74146 7.78612 2.74146 6.02777C2.74146 5.60447 2.82593 5.20047 2.97628 4.83059H1.23511V9.60588C1.23511 10.2226 1.73652 10.7235 2.35299 10.7235H9.50922Z" fill="#FF6B18"/>
</svg>
