<svg width="147" height="25" viewBox="0 0 147 25" fill="none" xmlns="http://www.w3.org/2000/svg">
<path d="M19.1562 5.04688H12.1875V24H7.5V5.04688H0.625V1.25H19.1562V5.04688Z" fill="#FF6B18"/>
<path d="M27.9219 24.3125C25.4427 24.3125 23.4219 23.5521 21.8594 22.0312C20.3073 20.5104 19.5312 18.4844 19.5312 15.9531V15.5156C19.5312 13.8177 19.8594 12.3021 20.5156 10.9688C21.1719 9.625 22.099 8.59375 23.2969 7.875C24.5052 7.14583 25.8802 6.78125 27.4219 6.78125C29.7344 6.78125 31.5521 7.51042 32.875 8.96875C34.2083 10.4271 34.875 12.4948 34.875 15.1719V17.0156H24.1094C24.2552 18.1198 24.6927 19.0052 25.4219 19.6719C26.1615 20.3385 27.0938 20.6719 28.2188 20.6719C29.9583 20.6719 31.3177 20.0417 32.2969 18.7812L34.5156 21.2656C33.8385 22.224 32.9219 22.974 31.7656 23.5156C30.6094 24.0469 29.3281 24.3125 27.9219 24.3125ZM27.4062 10.4375C26.5104 10.4375 25.7812 10.7396 25.2188 11.3438C24.6667 11.9479 24.3125 12.8125 24.1562 13.9375H30.4375V13.5781C30.4167 12.5781 30.1458 11.8073 29.625 11.2656C29.1042 10.7135 28.3646 10.4375 27.4062 10.4375Z" fill="#FF6B18"/>
<path d="M46.6094 19.3281C46.6094 18.776 46.3333 18.3438 45.7812 18.0312C45.2396 17.7083 44.3646 17.4219 43.1562 17.1719C39.1354 16.3281 37.125 14.6198 37.125 12.0469C37.125 10.5469 37.7448 9.29688 38.9844 8.29688C40.2344 7.28646 41.8646 6.78125 43.875 6.78125C46.0208 6.78125 47.7344 7.28646 49.0156 8.29688C50.3073 9.30729 50.9531 10.6198 50.9531 12.2344H46.4375C46.4375 11.5885 46.2292 11.0573 45.8125 10.6406C45.3958 10.2135 44.7448 10 43.8594 10C43.099 10 42.5104 10.1719 42.0938 10.5156C41.6771 10.8594 41.4688 11.2969 41.4688 11.8281C41.4688 12.3281 41.7031 12.7344 42.1719 13.0469C42.651 13.349 43.4531 13.6146 44.5781 13.8438C45.7031 14.0625 46.651 14.3125 47.4219 14.5938C49.8073 15.4688 51 16.9844 51 19.1406C51 20.6823 50.3385 21.9323 49.0156 22.8906C47.6927 23.8385 45.9844 24.3125 43.8906 24.3125C42.474 24.3125 41.2135 24.0625 40.1094 23.5625C39.0156 23.0521 38.1562 22.3594 37.5312 21.4844C36.9062 20.599 36.5938 19.6458 36.5938 18.625H40.875C40.9167 19.4271 41.2135 20.0417 41.7656 20.4688C42.3177 20.8958 43.0573 21.1094 43.9844 21.1094C44.849 21.1094 45.5 20.9479 45.9375 20.625C46.3854 20.2917 46.6094 19.8594 46.6094 19.3281Z" fill="#FF6B18"/>
<path d="M59.3281 2.9375V7.09375H62.2188V10.4062H59.3281V18.8438C59.3281 19.4688 59.4479 19.9167 59.6875 20.1875C59.9271 20.4583 60.3854 20.5938 61.0625 20.5938C61.5625 20.5938 62.0052 20.5573 62.3906 20.4844V23.9062C61.5052 24.1771 60.5938 24.3125 59.6562 24.3125C56.4896 24.3125 54.875 22.7135 54.8125 19.5156V10.4062H52.3438V7.09375H54.8125V2.9375H59.3281Z" fill="#FF6B18"/>
<path d="M72.5156 24.3125C70.0365 24.3125 68.0156 23.5521 66.4531 22.0312C64.901 20.5104 64.125 18.4844 64.125 15.9531V15.5156C64.125 13.8177 64.4531 12.3021 65.1094 10.9688C65.7656 9.625 66.6927 8.59375 67.8906 7.875C69.099 7.14583 70.474 6.78125 72.0156 6.78125C74.3281 6.78125 76.1458 7.51042 77.4688 8.96875C78.8021 10.4271 79.4688 12.4948 79.4688 15.1719V17.0156H68.7031C68.849 18.1198 69.2865 19.0052 70.0156 19.6719C70.7552 20.3385 71.6875 20.6719 72.8125 20.6719C74.5521 20.6719 75.9115 20.0417 76.8906 18.7812L79.1094 21.2656C78.4323 22.224 77.5156 22.974 76.3594 23.5156C75.2031 24.0469 73.9219 24.3125 72.5156 24.3125ZM72 10.4375C71.1042 10.4375 70.375 10.7396 69.8125 11.3438C69.2604 11.9479 68.9062 12.8125 68.75 13.9375H75.0312V13.5781C75.0104 12.5781 74.7396 11.8073 74.2188 11.2656C73.6979 10.7135 72.9583 10.4375 72 10.4375Z" fill="#FF6B18"/>
<path d="M104.719 17.8594L106.938 7.09375H111.297L106.984 24H103.203L100 13.3594L96.7969 24H93.0312L88.7188 7.09375H93.0781L95.2812 17.8438L98.375 7.09375H101.641L104.719 17.8594Z" fill="#FF6B18"/>
<path d="M121.328 24.3125C118.849 24.3125 116.828 23.5521 115.266 22.0312C113.714 20.5104 112.938 18.4844 112.938 15.9531V15.5156C112.938 13.8177 113.266 12.3021 113.922 10.9688C114.578 9.625 115.505 8.59375 116.703 7.875C117.911 7.14583 119.286 6.78125 120.828 6.78125C123.141 6.78125 124.958 7.51042 126.281 8.96875C127.615 10.4271 128.281 12.4948 128.281 15.1719V17.0156H117.516C117.661 18.1198 118.099 19.0052 118.828 19.6719C119.568 20.3385 120.5 20.6719 121.625 20.6719C123.365 20.6719 124.724 20.0417 125.703 18.7812L127.922 21.2656C127.245 22.224 126.328 22.974 125.172 23.5156C124.016 24.0469 122.734 24.3125 121.328 24.3125ZM120.812 10.4375C119.917 10.4375 119.188 10.7396 118.625 11.3438C118.073 11.9479 117.719 12.8125 117.562 13.9375H123.844V13.5781C123.823 12.5781 123.552 11.8073 123.031 11.2656C122.51 10.7135 121.771 10.4375 120.812 10.4375Z" fill="#FF6B18"/>
<path d="M146.094 15.7031C146.094 18.4115 145.516 20.526 144.359 22.0469C143.203 23.5573 141.589 24.3125 139.516 24.3125C137.682 24.3125 136.219 23.6094 135.125 22.2031L134.922 24H130.859V0H135.375V8.60938C136.417 7.39062 137.786 6.78125 139.484 6.78125C141.547 6.78125 143.161 7.54167 144.328 9.0625C145.505 10.5729 146.094 12.7031 146.094 15.4531V15.7031ZM141.578 15.375C141.578 13.6667 141.307 12.4219 140.766 11.6406C140.224 10.849 139.417 10.4531 138.344 10.4531C136.906 10.4531 135.917 11.0417 135.375 12.2188V18.8906C135.927 20.0781 136.927 20.6719 138.375 20.6719C139.833 20.6719 140.792 19.9531 141.25 18.5156C141.469 17.8281 141.578 16.7812 141.578 15.375Z" fill="#FF6B18"/>
</svg>
